<svg id="iniciar-sesion" xmlns="http://www.w3.org/2000/svg" width="24.001" height="24.001" viewBox="0 0 24.001 24.001">
  <g id="Grupo_4" data-name="Grupo 4">
    <g id="Grupo_3" data-name="Grupo 3">
      <path id="Trazado_37" data-name="Trazado 37" d="M21.189,0H2.813A2.816,2.816,0,0,0,0,2.813v3.75H1.875V2.813a.939.939,0,0,1,.938-.938H21.189a.939.939,0,0,1,.938.938V21.189a.939.939,0,0,1-.938.938H2.813a.939.939,0,0,1-.938-.938v-3.75H0v3.75A2.816,2.816,0,0,0,2.813,24H21.189A2.816,2.816,0,0,0,24,21.189V2.813A2.816,2.816,0,0,0,21.189,0Z" fill="#fff"/>
    </g>
  </g>
  <g id="Grupo_6" data-name="Grupo 6" transform="translate(0 6.175)">
    <g id="Grupo_5" data-name="Grupo 5">
      <path id="Trazado_38" data-name="Trazado 38" d="M11.251,131.716l-1.326,1.326,3.563,3.563H0v1.875H13.487l-3.563,3.563,1.326,1.326,5.826-5.826Z" transform="translate(0 -131.716)" fill="#fff"/>
    </g>
  </g>
</svg>
