<svg xmlns="http://www.w3.org/2000/svg" width="20.246" height="36" viewBox="0 0 20.246 36">
  <path id="Icon_awesome-dollar-sign" data-name="Icon awesome-dollar-sign" d="M14.709,16.411,7.116,14.189A2.074,2.074,0,0,1,7.7,10.125h4.662a4.292,4.292,0,0,1,2.4.738,1.1,1.1,0,0,0,1.371-.141l2.447-2.391a1.14,1.14,0,0,0-.127-1.723A9.942,9.942,0,0,0,12.375,4.5V1.125A1.128,1.128,0,0,0,11.25,0H9A1.128,1.128,0,0,0,7.875,1.125V4.5H7.7A7.7,7.7,0,0,0,.035,12.909,8.049,8.049,0,0,0,5.927,19.7l7.207,2.109a2.074,2.074,0,0,1-.584,4.064H7.889a4.292,4.292,0,0,1-2.4-.738,1.1,1.1,0,0,0-1.371.141L1.666,27.668a1.14,1.14,0,0,0,.127,1.723A9.942,9.942,0,0,0,7.875,31.5v3.375A1.128,1.128,0,0,0,9,36h2.25a1.128,1.128,0,0,0,1.125-1.125V31.486a7.942,7.942,0,0,0,7.432-5.112,7.721,7.721,0,0,0-5.1-9.963Z" transform="translate(-0.003)" fill="#fff"/>
</svg>
