<svg xmlns="http://www.w3.org/2000/svg" width="27.302" height="19.999" viewBox="0 0 27.302 19.999">
  <g id="email" transform="translate(0 -24.61)">
    <path id="Trazado_32" data-name="Trazado 32" d="M23.852,24.61H3.45A3.454,3.454,0,0,0,0,28.06v13.1a3.454,3.454,0,0,0,3.45,3.45h20.4a3.454,3.454,0,0,0,3.45-3.45V28.06A3.454,3.454,0,0,0,23.852,24.61Zm-.539,2.226L13.651,34.3,3.99,26.836Zm.539,15.547H3.45a1.226,1.226,0,0,1-1.225-1.225V28.286l10.745,8.3a1.113,1.113,0,0,0,1.361,0l10.745-8.3V41.158A1.226,1.226,0,0,1,23.852,42.383Z" fill="#c9c9c9"/>
  </g>
</svg>
