<svg id="marca-de-verificacion" xmlns="http://www.w3.org/2000/svg" width="27.47" height="25.18" viewBox="0 0 27.47 25.18">
  <path id="Trazado_45" data-name="Trazado 45" d="M12.59,25.188A12.59,12.59,0,1,1,19.382,2a.859.859,0,0,1-.928,1.446,10.871,10.871,0,1,0,5.01,9.154c0-.358-.017-.713-.05-1.062a.858.858,0,0,1,1.709-.166q.058.606.058,1.228a12.6,12.6,0,0,1-12.59,12.59Zm0,0" transform="translate(0 -0.008)" fill="#fff"/>
  <path id="Trazado_46" data-name="Trazado 46" d="M155.348,35.654a.852.852,0,0,1-.607-.252l-5.15-5.15a.859.859,0,1,1,1.214-1.214l4.544,4.544L167.332,21.6a.859.859,0,0,1,1.214,1.214L155.956,35.4a.86.86,0,0,1-.608.251Zm0,0" transform="translate(-141.328 -20.203)" fill="#fff"/>
</svg>
