<svg xmlns="http://www.w3.org/2000/svg" width="29.675" height="23.081" viewBox="0 0 29.675 23.081">
  <path id="Icon_awesome-credit-card" data-name="Icon awesome-credit-card" d="M0,22.858a2.474,2.474,0,0,0,2.473,2.473H27.2a2.474,2.474,0,0,0,2.473-2.473V13.79H0Zm9.892-3.5a.62.62,0,0,1,.618-.618h7.007a.62.62,0,0,1,.618.618v2.061a.62.62,0,0,1-.618.618H10.51a.62.62,0,0,1-.618-.618Zm-6.594,0a.62.62,0,0,1,.618-.618H7.625a.62.62,0,0,1,.618.618v2.061a.62.62,0,0,1-.618.618H3.915a.62.62,0,0,1-.618-.618ZM29.675,4.723V7.2H0V4.723A2.474,2.474,0,0,1,2.473,2.25H27.2A2.474,2.474,0,0,1,29.675,4.723Z" transform="translate(0 -2.25)" fill="#fff"/>
</svg>
