<?xml version="1.0" encoding="utf-8"?>
<!-- Generator: Adobe Illustrator 24.1.1, SVG Export Plug-In . SVG Version: 6.00 Build 0)  -->
<svg version="1.1" xmlns="http://www.w3.org/2000/svg" xmlns:xlink="http://www.w3.org/1999/xlink" x="0px" y="0px"
	 viewBox="0 0 300 300" style="enable-background:new 0 0 300 300;" xml:space="preserve">
<style type="text/css">
	.st0{fill:#EB4940;}
	.st1{fill:#FFFFFF;}
</style>
<g id="Capa_1">
	<path class="st0" d="M39.26,128.69l221.42,0.18l31.63,29.46v7.95l-7.27,2.49c-0.95,0.26-2.87,0.81-4.88,0.81
		c-2.41,0-4.95-0.59-6.1-0.87l-7.27-2.43H239.8l-7.09,3.07c-2.83,0.78-7.32,0.65-10.16-0.06l-8.32-3.02h-25.67l-6.57,2.44
		c-3.95,1.11-10.57,1.32-14.23-0.5l-5.63-1.94h-24.4l-5.2,1.9c-3.25,1.85-10.8,1.62-14.42,0.24l-6.69-2.14H84.31l-5.49,2.9
		c-4.15,1.09-8.5,1.14-12.67,0.14l-5.96-3.04H32.12l-5.17,2.06c-4.41,1.3-9.09,1.3-13.5,0.02l-4.5-2.08v-8.68L39.26,128.69z"/>
</g>
<g id="Capa_3">
	<path class="st1" d="M57.61,128.71l-25.49,29.74v7.6c2.13,1.27,7.08,3.82,13.83,3.79c6.41-0.03,11.14-2.38,13.28-3.61
		c0-2.32,0-4.63,0-6.95l18.98-30.57H57.61z"/>
	<path class="st1" d="M240.89,128.71l25.49,29.74v7.6c-2.13,1.27-7.08,3.82-13.83,3.79c-6.41-0.03-11.14-2.38-13.28-3.61
		c0-2.32,0-4.63,0-6.95l-18.98-30.57H240.89z"/>
	<path class="st1" d="M99.35,128.69l-14.78,29.55v7.89c1.73,1.16,7.21,4.54,14.78,4.04c5.73-0.38,9.82-2.8,11.64-4.04
		c0-2.63,0-5.26,0-7.89l9.61-29.55H99.35z"/>
	<path class="st1" d="M200.29,128.69l14.78,29.78v7.95c-1.73,1.17-7.21,4.58-14.78,4.07c-5.73-0.38-9.82-2.82-11.64-4.07
		c0-2.65,0-5.3,0-7.95l-9.61-29.78H200.29z"/>
	<path class="st1" d="M141.78,128.69l-3.53,29.71v7.84c1.85,1.1,6.23,3.37,12.18,3.28c5.55-0.09,9.63-2.18,11.48-3.28
		c0-2.79,0-5.59,0-8.38l-1.94-29.16H141.78z"/>
</g>
</svg>
