<svg id="american-express" xmlns="http://www.w3.org/2000/svg" width="58.333" height="36.944" viewBox="0 0 58.333 36.944">
  <path id="Trazado_66" data-name="Trazado 66" d="M58.321,113.274a3.317,3.317,0,0,1-3.451,3.17H3.451A3.332,3.332,0,0,1,0,113.274V82.66A3.316,3.316,0,0,1,3.451,79.5h51.43a3.325,3.325,0,0,1,3.451,3.17v30.6Z" transform="translate(0 -79.5)" fill="#306fc5"/>
  <g id="Grupo_8" data-name="Grupo 8" transform="translate(5.833 10.85)">
    <path id="Trazado_67" data-name="Trazado 67" d="M74.6,203.33h1.6L75.4,201.3Z" transform="translate(-70.635 -199.406)" fill="#fff"/>
    <path id="Trazado_68" data-name="Trazado 68" d="M155.9,286.1v.942h2.7v1.025h-2.7v1.088h2.992l1.381-1.528-1.308-1.528Z" transform="translate(-143.428 -275.334)" fill="#fff"/>
    <path id="Trazado_69" data-name="Trazado 69" d="M349.468,201.3l-.868,2.03h1.664Z" transform="translate(-315.967 -199.406)" fill="#fff"/>
    <path id="Trazado_70" data-name="Trazado 70" d="M214.183,285.354V281.2l-1.883,2.04Z" transform="translate(-193.927 -270.947)" fill="#fff"/>
    <path id="Trazado_71" data-name="Trazado 71" d="M244.433,286.759a.739.739,0,0,0-.806-.659H242.1v1.308h1.6C244.14,287.408,244.433,287.188,244.433,286.759Z" transform="translate(-220.609 -275.334)" fill="#fff"/>
    <path id="Trazado_72" data-name="Trazado 72" d="M295.64,287.8a.57.57,0,0,0,.22-.513.407.407,0,0,0-.22-.513,1.428,1.428,0,0,0-.586-.073H293.6v1.161h1.454A1.279,1.279,0,0,0,295.64,287.8Z" transform="translate(-266.721 -275.871)" fill="#fff"/>
    <path id="Trazado_73" data-name="Trazado 73" d="M76.092,183.2v.868l-.439-.868H72.231v.868l-.439-.868H67.136a4.444,4.444,0,0,0-2.04.439V183.2H61.821v.439a2.082,2.082,0,0,0-1.381-.439h-11.7l-.806,1.82-.8-1.82H43.428v.868l-.366-.868h-3.2l-1.454,3.421-1.674,3.714-.031.073h3.788l.031-.073.439-1.088H41.9l.439,1.161h4.216v-.868l.366.868h2.113l.366-.868v.868H59.519v-1.894h.146c.146,0,.146,0,.146.22v1.6h5.242V189.9a4.338,4.338,0,0,0,1.967.439h2.187l.439-1.161h1.015l.439,1.161h4.216v-1.1l.659,1.088H79.4V183.2Zm-24.661,6.11H50.26V185.3l-.073.167h0l-1.695,3.84H47.435l-1.747-4v4h-2.48l-.513-1.088H40.226l-.513,1.088H38.437l2.155-5.1h1.821l2.04,4.876v-4.876h1.936l.031.073h0l.921,2,.659,1.5.021-.073,1.454-3.495h1.967l-.01,5.1Zm5.022-4H53.618v.942H56.38v1.015H53.618v1.015h2.835v1.088h-4.07V184.2h4.07v1.109Zm5.19,1.873h0a.289.289,0,0,1,.073.094,1.435,1.435,0,0,1,.262.858v1.182H60.89v-.6a1.7,1.7,0,0,0-.22-1.015.638.638,0,0,0-.209-.146,1.4,1.4,0,0,0-.659-.073H58.494v1.821H57.259v-5.1h2.762a2.766,2.766,0,0,1,1.454.22,1.2,1.2,0,0,1,.575,1.13,1.439,1.439,0,0,1-.868,1.339A1.127,1.127,0,0,1,61.643,187.186Zm2.448,2.124H62.857v-5.1h1.235Zm14.187,0h-1.6l-2.333-3.861v3.2l-.01-.01v.67H71.876l-.439-1.088H68.894l-.439,1.161H67.073a2.2,2.2,0,0,1-2.406-2.553,2.975,2.975,0,0,1,.659-2.04,2.284,2.284,0,0,1,1.821-.586h1.161v1.088H67.147a1.308,1.308,0,0,0-.942.293,1.709,1.709,0,0,0-.366,1.161,1.568,1.568,0,0,0,.366,1.235,1.157,1.157,0,0,0,.868.293h.513l1.674-4h1.821l2.04,4.876v-4.876h1.821l2.113,3.568v-3.568h1.235l-.01,5.033Z" transform="translate(-36.7 -183.2)" fill="#fff"/>
    <path id="Trazado_74" data-name="Trazado 74" d="M247.113,204.425a.317.317,0,0,0,.052-.073.788.788,0,0,0,.1-.544c0-.021-.01-.042-.01-.063v-.021h0a.406.406,0,0,0-.22-.251,1.428,1.428,0,0,0-.586-.073H245v1.161h1.454a1.428,1.428,0,0,0,.586-.073c.021-.01.042-.031.063-.042h0C247.092,204.446,247.1,204.436,247.113,204.425Z" transform="translate(-223.206 -201.287)" fill="#fff"/>
    <path id="Trazado_75" data-name="Trazado 75" d="M169.6,269.376a2.764,2.764,0,0,0-.366-1.381V264.72h0v-.22h-3.505a2.085,2.085,0,0,0-1,.439V264.5h-3.348a2.293,2.293,0,0,0-1.454.439V264.5h-5.964v.439a2.8,2.8,0,0,0-1.6-.439h-3.924v.439a2.748,2.748,0,0,0-1.674-.439H142.4l-1.015,1.088-.942-1.088H133.9v7.355h6.4l1.057-1.057.91,1.057h4.08v-1.674h.366a4.4,4.4,0,0,0,1.674-.22v1.967h3.275v-1.894h.146c.22,0,.22,0,.22.22v1.674h9.9a2.836,2.836,0,0,0,1.674-.439v.439h3.128a3.251,3.251,0,0,0,1.747-.366,2.426,2.426,0,0,0,1.151-1.957c0-.021.01-.052.01-.073h0A.238.238,0,0,1,169.6,269.376Zm-22.913-.429h-1.454v1.894h-2.4l-1.392-1.6v.01l-.063-.073-1.611,1.653h-4.656v-5.1h4.729l1.287,1.412.272.293.042-.042,1.528-1.674h3.861a1.891,1.891,0,0,1,1.9.942,1.856,1.856,0,0,1,.063.513C148.788,268.654,147.774,268.947,146.685,268.947Zm7.272-.073a1.647,1.647,0,0,1,.22.942v1.015h-1.235v-.659a1.6,1.6,0,0,0-.22-1.015c-.146-.22-.439-.22-.868-.22h-1.308v1.894h-1.235v-5.169h2.762a2.906,2.906,0,0,1,1.454.22,1.29,1.29,0,0,1,.659,1.161,1.462,1.462,0,0,1-.868,1.381A1.337,1.337,0,0,1,153.957,268.873Zm5.022-2.113h-2.835v.942h2.762v1.015h-2.762v1.015h2.835v1.1h-4.07v-5.169h4.07Zm3.055,4.07H159.7v-1.088h2.333a.618.618,0,0,0,.513-.146.531.531,0,0,0,0-.732.619.619,0,0,0-.439-.146c-1.161-.073-2.542,0-2.542-1.6,0-.732.439-1.528,1.747-1.528h2.4v1.235h-2.26a1.086,1.086,0,0,0-.513.073c-.146.073-.146.22-.146.366,0,.22.146.293.293.366a.929.929,0,0,0,.439.073h.659a1.838,1.838,0,0,1,1.381.439,1.506,1.506,0,0,1,.366,1.088C163.928,270.328,163.269,270.83,162.034,270.83Zm6.257-.5a2.107,2.107,0,0,1-1.528.513h-2.323v-1.088h2.323a.618.618,0,0,0,.513-.146.531.531,0,0,0,0-.732.619.619,0,0,0-.439-.146c-1.161-.073-2.542,0-2.542-1.6a1.5,1.5,0,0,1,1.371-1.507,2.111,2.111,0,0,1,.377-.031h2.4v1.235h-2.26a1.086,1.086,0,0,0-.513.073.56.56,0,0,0-.146.366c0,.22.073.293.293.366a.929.929,0,0,0,.439.073h.659a2.368,2.368,0,0,1,.774.115,1.555,1.555,0,0,1,1.015,1.151,2.036,2.036,0,0,1,.021.262A1.443,1.443,0,0,1,168.291,270.328Z" transform="translate(-123.73 -255.994)" fill="#fff"/>
  </g>
</svg>
