<svg xmlns="http://www.w3.org/2000/svg" width="58" height="37" viewBox="0 0 58 37">
  <g id="maestro-group" transform="translate(0.243)">
    <rect id="Rectángulo_30" data-name="Rectángulo 30" width="58" height="37" rx="2" transform="translate(-0.243)" fill="#f1f1f1"/>
    <g id="maestro" transform="translate(10.591 6.805)">
      <path id="Trazado_76" data-name="Trazado 76" d="M23.441,66.427A11.721,11.721,0,1,1,11.714,54.7,11.719,11.719,0,0,1,23.441,66.427Z" transform="translate(0 -54.7)" fill="#009ddd"/>
      <path id="Trazado_77" data-name="Trazado 77" d="M121.04,54.7a11.654,11.654,0,0,0-7.008,2.34h.013a8.892,8.892,0,0,1,1.132,1.067l-2.443.039a10.818,10.818,0,0,0-1.054,1.247h4.295a11.312,11.312,0,0,1,.9,1.17h-5.979a12.552,12.552,0,0,0-.6,1.17h7.265a8.9,8.9,0,0,1,.5,1.132h-8.2a10.237,10.237,0,0,0-.321,1.234H118.4c.09.411.154.784.206,1.157h-9.245a11.678,11.678,0,0,0-.064,1.17h9.374a8.516,8.516,0,0,1-.077,1.17h-9.232a11.669,11.669,0,0,0,.18,1.17h8.86a10.563,10.563,0,0,1-.334,1.157H109.84c.129.4.27.784.437,1.17h7.278a10.661,10.661,0,0,1-.682,1.17h-6a11.78,11.78,0,0,0,.784,1.183l4.32.064a11.611,11.611,0,0,1-1.273,1.093c.026.013-.694,0-2.083-.026A11.721,11.721,0,1,0,121.04,54.7Z" transform="translate(-95.246 -54.7)" fill="#ed1c2e"/>
    </g>
  </g>
</svg>
