<svg xmlns="http://www.w3.org/2000/svg" width="59" height="37" viewBox="0 0 59 37">
  <g id="mastercard-group" transform="translate(0.495)">
    <rect id="Rectángulo_29" data-name="Rectángulo 29" width="59" height="37" rx="2" transform="translate(-0.495)" fill="#306fc5"/>
    <g id="mastercard" transform="translate(10.628 6.93)">
      <path id="Trazado_78" data-name="Trazado 78" d="M23.582,66.514A11.791,11.791,0,1,1,11.791,54.719,11.791,11.791,0,0,1,23.582,66.514Z" transform="translate(0 -54.719)" fill="#e2574c"/>
      <path id="Trazado_79" data-name="Trazado 79" d="M121.226,54.719a11.726,11.726,0,0,0-7.046,2.352h.009a10.106,10.106,0,0,1,1.143,1.067l-2.453.039a12.129,12.129,0,0,0-1.065,1.249h4.326a10.961,10.961,0,0,1,.909,1.175h-6.02a11.749,11.749,0,0,0-.6,1.176h7.308a10.044,10.044,0,0,1,.507,1.138h-8.248a11.356,11.356,0,0,0-.328,1.248h8.922c.087.408.154.785.2,1.17h-9.3c-.039.388-.059.782-.059,1.18h9.425a10.358,10.358,0,0,1-.072,1.18h-9.294q.06.6.177,1.18h8.907c-.092.382-.2.767-.331,1.165h-8.275a11.449,11.449,0,0,0,.443,1.177h7.325a10.741,10.741,0,0,1-.686,1.175h-6.04a11.472,11.472,0,0,0,.787,1.184l4.345.065a11.484,11.484,0,0,1-1.279,1.1c.024.019-.692,0-2.1-.025a11.792,11.792,0,1,0,8.466-20Z" transform="translate(-95.274 -54.719)" fill="#f4b459"/>
    </g>
  </g>
</svg>
