<svg id="visa-group" xmlns="http://www.w3.org/2000/svg" width="58" height="37" viewBox="0 0 58 37">
  <rect id="Rectángulo_26" data-name="Rectángulo 26" width="58" height="37" rx="2" fill="#fff"/>
  <path id="Rectángulo_28" data-name="Rectángulo 28" d="M0,0H58a0,0,0,0,1,0,0V4a3,3,0,0,1-3,3H3A3,3,0,0,1,0,4V0A0,0,0,0,1,0,0Z" transform="translate(0 30)" fill="#efc75e"/>
  <path id="Rectángulo_27" data-name="Rectángulo 27" d="M3,0H55a3,3,0,0,1,3,3V8a0,0,0,0,1,0,0H0A0,0,0,0,1,0,8V3A3,3,0,0,1,3,0Z" fill="#2394bc"/>
  <g id="visa" transform="translate(11.787 13.422)">
    <g id="Grupo_10" data-name="Grupo 10" transform="translate(3.247)">
      <g id="Grupo_9" data-name="Grupo 9">
        <path id="Trazado_80" data-name="Trazado 80" d="M38.218,100.23l-1.744,10.852h2.787L41,100.23Zm8.408,4.421c-.974-.481-1.571-.806-1.571-1.3.012-.447.5-.906,1.606-.906a4.851,4.851,0,0,1,2.076.4l.253.113.379-2.271a7.036,7.036,0,0,0-2.5-.447c-2.753,0-4.691,1.431-4.7,3.478-.023,1.51,1.388,2.349,2.443,2.852,1.078.516,1.445.85,1.445,1.309-.012.7-.872,1.028-1.674,1.028a5.669,5.669,0,0,1-2.616-.559l-.367-.167-.39,2.36a8.705,8.705,0,0,0,3.109.56c2.925,0,4.829-1.41,4.853-3.591C48.977,106.316,48.234,105.4,46.626,104.651Zm9.889-4.387H54.359a1.381,1.381,0,0,0-1.457.873l-4.14,9.946h2.925l.806-2.153h3.273l.418,2.162h2.58ZM53.3,106.756c.056.006,1.123-3.515,1.123-3.515l.849,3.515ZM34.145,100.23,31.414,107.6l-.3-1.454a8.1,8.1,0,0,0-3.855-4.406l2.5,9.329h2.949l4.383-10.84H34.145Z" transform="translate(-27.262 -100.23)" fill="#2394bc"/>
      </g>
    </g>
    <path id="Trazado_81" data-name="Trazado 81" d="M6.183,101.645a1.821,1.821,0,0,0-1.813-1.4H.045l-.045.2a10.617,10.617,0,0,1,7.124,5.8Z" transform="translate(0 -100.246)" fill="#efc75e"/>
  </g>
</svg>
